<?xml version="1.0" encoding="utf-8"?>
<!-- Generator: Adobe Illustrator 25.0.0, SVG Export Plug-In . SVG Version: 6.00 Build 0)  -->
<svg version="1.1" id="a02f2390-8fa7-48a9-96f1-2ec5f63ecbc1"
	 xmlns="http://www.w3.org/2000/svg" xmlns:xlink="http://www.w3.org/1999/xlink" x="0px" y="0px" viewBox="0 0 1150 627.5"
	 style="enable-background:new 0 0 1150 627.5;" xml:space="preserve">
<style type="text/css">
	.st0{fill:url(#SVGID_1_);stroke:url(#SVGID_2_);stroke-width:0.15;stroke-miterlimit:10;}
	.st1{opacity:0.75;fill:url(#SVGID_3_);enable-background:new    ;}
	.st2{opacity:0.69;}
	.st3{fill:url(#SVGID_4_);}
	.st4{fill:url(#SVGID_5_);}
	.st5{fill:url(#SVGID_6_);}
	.st6{fill:url(#SVGID_7_);}
	.st7{fill:url(#SVGID_8_);}
	.st8{fill:url(#SVGID_9_);}
	.st9{fill:url(#SVGID_10_);}
	.st10{fill:url(#SVGID_11_);}
	.st11{fill:url(#SVGID_12_);}
	.st12{fill:url(#SVGID_13_);}
	.st13{fill:url(#SVGID_14_);}
	.st14{fill:url(#SVGID_15_);}
	.st15{fill:url(#SVGID_16_);}
	.st16{fill:url(#SVGID_17_);}
	.st17{fill:url(#SVGID_18_);}
	.st18{fill:url(#SVGID_19_);}
	.st19{fill:url(#SVGID_20_);}
	.st20{fill:url(#SVGID_21_);}
	.st21{fill:url(#SVGID_22_);}
	.st22{fill:url(#SVGID_23_);}
	.st23{fill:url(#SVGID_24_);}
	.st24{fill:url(#SVGID_25_);}
	.st25{fill:url(#SVGID_26_);}
	.st26{fill:url(#SVGID_27_);}
	.st27{fill:url(#SVGID_28_);}
	.st28{fill:url(#SVGID_29_);}
	.st29{fill:url(#SVGID_30_);}
	.st30{fill:url(#SVGID_31_);}
	.st31{fill:url(#SVGID_32_);}
	.st32{fill:url(#SVGID_33_);}
	.st33{fill:url(#SVGID_34_);}
	.st34{fill:url(#SVGID_35_);}
	.st35{fill:url(#SVGID_36_);}
	.st36{fill:url(#SVGID_37_);}
	.st37{fill:url(#SVGID_38_);}
	.st38{fill:url(#SVGID_39_);}
	.st39{fill:url(#SVGID_40_);}
	.st40{fill:url(#SVGID_41_);}
	.st41{fill:url(#SVGID_42_);}
	.st42{fill:url(#SVGID_43_);}
	.st43{fill:url(#SVGID_44_);}
	.st44{fill:url(#SVGID_45_);}
	.st45{fill:url(#SVGID_46_);}
	.st46{fill:url(#SVGID_47_);}
	.st47{fill:url(#SVGID_48_);}
	.st48{fill:url(#SVGID_49_);}
	.st49{fill:url(#SVGID_50_);}
	.st50{fill:url(#SVGID_51_);}
	.st51{fill:url(#SVGID_52_);}
	.st52{fill:url(#SVGID_53_);}
	.st53{fill:url(#SVGID_54_);}
	.st54{fill:url(#SVGID_55_);}
	.st55{opacity:0.3;fill:url(#SVGID_56_);enable-background:new    ;}
	.st56{opacity:0.64;fill:url(#SVGID_57_);enable-background:new    ;}
	.st57{fill:url(#SVGID_58_);}
	.st58{fill:url(#SVGID_59_);}
	.st59{fill:url(#SVGID_60_);}
	.st60{fill:url(#SVGID_61_);}
	.st61{fill:url(#SVGID_62_);}
	.st62{fill:url(#SVGID_63_);}
</style>
<g>
	<g>
		
			<radialGradient id="SVGID_1_" cx="161.46" cy="473.9057" r="137.8141" gradientTransform="matrix(1.7619 0 0 -1.1735 -45.3289 720.9191)" gradientUnits="userSpaceOnUse">
			<stop  offset="0" style="stop-color:#61C3E2"/>
			<stop  offset="0.598" style="stop-color:#2A8FC7"/>
			<stop  offset="1" style="stop-color:#0971B7"/>
		</radialGradient>
		
			<linearGradient id="SVGID_2_" gradientUnits="userSpaceOnUse" x1="-0.1683" y1="463.1977" x2="478.374" y2="463.1977" gradientTransform="matrix(1 0 0 -1 0 628)">
			<stop  offset="0" style="stop-color:#8F2E87"/>
			<stop  offset="1" style="stop-color:#3E163C"/>
		</linearGradient>
		<path class="st0" d="M42.9,0.7l427.5-0.1c8.3,0,10.9,6.7,3.4,8.8l-55.4,15.9c-29.3,8.4-61.4,12.8-93.9,12.8H292
			c-40.8,0-73.8,19.6-73.8,43.9l-0.3,226c0,11.5-15.8,20.8-35.1,20.8l0,0c-19.4,0-35.1-9.4-35.1-20.9V94.6c0-23.2-18.8-45.1-50-55.3
			c-0.2-0.1-0.6-0.1-0.8-0.3C52.5,24.7,10.5,32.6,0,34.8l0,0c3.3-4.7,6.6-9.4,9.9-14.1v-0.3C9.8,9.6,24.7,0.7,42.9,0.7z"/>
	</g>
	
		<radialGradient id="SVGID_3_" cx="328.9417" cy="1248.4363" r="371.9376" gradientTransform="matrix(1.7619 -2.229604e-03 -5.285737e-04 -0.1872 -1.7672 801.0298)" gradientUnits="userSpaceOnUse">
		<stop  offset="0" style="stop-color:#676767"/>
		<stop  offset="0.2553" style="stop-color:#919191;stop-opacity:0.7445"/>
		<stop  offset="0.765" style="stop-color:#E0E0E0;stop-opacity:0.2344"/>
		<stop  offset="0.9992" style="stop-color:#FFFFFF;stop-opacity:0"/>
	</radialGradient>
	<path class="st1" d="M1150,565.9c0.1,33.6-256.3,61.2-572.7,61.6c-316.4,0.4-572.9-26.5-573-60.1c-0.1-33.6,256.3-61.2,572.7-61.6
		C893.4,505.3,1149.9,532.3,1150,565.9z"/>
	<g class="st2">
		
			<radialGradient id="SVGID_4_" cx="198.8171" cy="104.5629" r="9.9815" gradientTransform="matrix(0 1.1735 2.7288 0 711.6943 118.5908)" gradientUnits="userSpaceOnUse">
			<stop  offset="0" style="stop-color:#61C3E2"/>
			<stop  offset="0.598" style="stop-color:#2A8FC7"/>
			<stop  offset="1" style="stop-color:#0971B7"/>
		</radialGradient>
		<polygon class="st3" points="1031.5,351.9 1005.5,344.5 1005.4,349 987.7,349 967.1,349 962.5,349 962.5,354.7 967.1,354.7 
			987.6,354.8 1005.4,354.8 1005.4,359.3 		"/>
		
			<linearGradient id="SVGID_5_" gradientUnits="userSpaceOnUse" x1="170.418" y1="484.3628" x2="186.0339" y2="484.3628" gradientTransform="matrix(0 1 1 0 453.2143 114.7143)">
			<stop  offset="0" style="stop-color:#8F2E87"/>
			<stop  offset="1" style="stop-color:#3E163C"/>
		</linearGradient>
		<polygon class="st4" points="974.1,293 946.5,285.1 946.5,289.9 927.6,289.9 905.9,289.9 901,289.9 901,296 905.9,296 927.6,296 
			946.4,296 946.4,300.7 		"/>
		
			<radialGradient id="SVGID_6_" cx="205.0954" cy="104.2974" r="14.3841" gradientTransform="matrix(0 1.1735 1.7619 0 753.1949 118.5908)" gradientUnits="userSpaceOnUse">
			<stop  offset="0" style="stop-color:#61C3E2"/>
			<stop  offset="0.598" style="stop-color:#2A8FC7"/>
			<stop  offset="1" style="stop-color:#0971B7"/>
		</radialGradient>
		<polygon class="st5" points="971.1,359.3 945.3,352 945.3,356.5 927.7,356.5 907.3,356.5 902.8,356.5 902.8,362.2 907.3,362.2 
			927.7,362.2 945.3,362.2 945.3,366.6 		"/>
		
			<radialGradient id="SVGID_7_" cx="267.6884" cy="98.0024" r="12.6421" gradientTransform="matrix(0 1.1735 1.7619 0 753.1949 118.5908)" gradientUnits="userSpaceOnUse">
			<stop  offset="0" style="stop-color:#61C3E2"/>
			<stop  offset="0.598" style="stop-color:#2A8FC7"/>
			<stop  offset="1" style="stop-color:#0971B7"/>
		</radialGradient>
		<polygon class="st6" points="955.9,432.7 933.1,426.3 933.1,430.2 917.7,430.2 899.8,430.2 895.9,430.2 895.9,435.2 899.8,435.2 
			917.7,435.2 933.1,435.2 933.1,439.1 		"/>
		
			<radialGradient id="SVGID_8_" cx="224.8277" cy="122.4299" r="5.9037" gradientTransform="matrix(0 1.1735 2.7288 0 711.6943 118.5908)" gradientUnits="userSpaceOnUse">
			<stop  offset="0" style="stop-color:#61C3E2"/>
			<stop  offset="0.598" style="stop-color:#2A8FC7"/>
			<stop  offset="1" style="stop-color:#0971B7"/>
		</radialGradient>
		<polygon class="st7" points="1066.2,382.4 1050.8,378.1 1050.8,380.8 1040.2,380.7 1028.2,380.7 1025.5,380.7 1025.3,384.1 
			1028.2,384.1 1040.2,384.1 1050.8,384.1 1050.8,386.8 		"/>
		
			<radialGradient id="SVGID_9_" cx="267.642" cy="66.2078" r="8.4173" gradientTransform="matrix(0 1.1735 1.7619 0 753.1949 118.5908)" gradientUnits="userSpaceOnUse">
			<stop  offset="0" style="stop-color:#61C3E2"/>
			<stop  offset="0.598" style="stop-color:#2A8FC7"/>
			<stop  offset="1" style="stop-color:#0971B7"/>
		</radialGradient>
		<polygon class="st8" points="889.8,432.6 874.7,428.4 874.7,431 864.4,431 852.5,431 849.9,431 849.9,434.3 852.5,434.3 
			864.4,434.3 874.7,434.3 874.7,436.9 		"/>
		
			<radialGradient id="SVGID_10_" cx="225.2905" cy="88.1285" r="10.1541" gradientTransform="matrix(0 1.1735 1.7619 0 753.1949 118.5908)" gradientUnits="userSpaceOnUse">
			<stop  offset="0" style="stop-color:#61C3E2"/>
			<stop  offset="0.598" style="stop-color:#2A8FC7"/>
			<stop  offset="1" style="stop-color:#0971B7"/>
		</radialGradient>
		<polygon class="st9" points="932.6,383 914.3,377.8 914.3,381 901.9,381 887.6,381 884.5,381 884.4,385 887.6,385 901.9,385 
			914.3,385 914.3,388.1 		"/>
		
			<radialGradient id="SVGID_11_" cx="205.4149" cy="119.176" r="5.7705" gradientTransform="matrix(0 1.1735 2.7288 0 711.6943 118.5908)" gradientUnits="userSpaceOnUse">
			<stop  offset="0" style="stop-color:#61C3E2"/>
			<stop  offset="0.598" style="stop-color:#2A8FC7"/>
			<stop  offset="1" style="stop-color:#0971B7"/>
		</radialGradient>
		<polygon class="st10" points="1056.9,359.7 1041.8,355.4 1041.8,358 1031.5,358 1019.6,358 1017,358 1017,361.3 1019.6,361.3 
			1031.5,361.3 1041.8,361.3 1041.8,363.9 		"/>
		
			<radialGradient id="SVGID_12_" cx="210.7833" cy="132.1616" r="8.1915" gradientTransform="matrix(0 1.1735 1.7619 0 753.1949 118.5908)" gradientUnits="userSpaceOnUse">
			<stop  offset="0" style="stop-color:#61C3E2"/>
			<stop  offset="0.598" style="stop-color:#2A8FC7"/>
			<stop  offset="1" style="stop-color:#0971B7"/>
		</radialGradient>
		<polygon class="st11" points="1005.5,366 990.8,361.8 990.8,364.3 980.8,364.3 969.2,364.3 966.6,364.3 966.6,367.6 969.2,367.6 
			980.8,367.6 990.8,367.6 990.8,370.1 		"/>
		
			<linearGradient id="SVGID_13_" gradientUnits="userSpaceOnUse" x1="192.8758" y1="352.9156" x2="209.5247" y2="352.9156" gradientTransform="matrix(0 1 1.5488 0 429.66 114.7143)">
			<stop  offset="0" style="stop-color:#8F2E87"/>
			<stop  offset="1" style="stop-color:#3E163C"/>
		</linearGradient>
		<polygon class="st12" points="1015.2,316 985.7,307.6 985.7,312.7 965.7,312.7 942.5,312.7 937.3,312.7 937.3,319.2 942.5,319.2 
			965.7,319.2 985.7,319.2 985.7,324.2 		"/>
		
			<radialGradient id="SVGID_14_" cx="250.5984" cy="73.0789" r="10.6327" gradientTransform="matrix(0 1.1735 2.7288 0 711.6943 118.5908)" gradientUnits="userSpaceOnUse">
			<stop  offset="0" style="stop-color:#61C3E2"/>
			<stop  offset="0.598" style="stop-color:#2A8FC7"/>
			<stop  offset="1" style="stop-color:#0971B7"/>
		</radialGradient>
		<polygon class="st13" points="947.9,412.7 920.1,404.8 920.1,409.6 901.2,409.6 879.3,409.6 874.4,409.6 874.4,415.7 879.2,415.7 
			901.2,415.7 920.1,415.7 920.1,420.5 		"/>
		
			<radialGradient id="SVGID_15_" cx="184.9322" cy="90.4611" r="15.6659" gradientTransform="matrix(0 1.1735 1.7619 0 753.1949 118.5908)" gradientUnits="userSpaceOnUse">
			<stop  offset="0" style="stop-color:#61C3E2"/>
			<stop  offset="0.598" style="stop-color:#2A8FC7"/>
			<stop  offset="1" style="stop-color:#0971B7"/>
		</radialGradient>
		<polygon class="st14" points="949.8,335.6 921.6,327.7 921.6,332.5 902.5,332.5 880.3,332.5 875.4,332.5 875.4,338.7 880.3,338.7 
			902.5,338.7 921.6,338.7 921.6,343.6 		"/>
		
			<radialGradient id="SVGID_16_" cx="250.7582" cy="126.9211" r="9.6515" gradientTransform="matrix(0 1.1735 1.7619 0 753.1949 118.5908)" gradientUnits="userSpaceOnUse">
			<stop  offset="0" style="stop-color:#61C3E2"/>
			<stop  offset="0.598" style="stop-color:#2A8FC7"/>
			<stop  offset="1" style="stop-color:#0971B7"/>
		</radialGradient>
		<polygon class="st15" points="999.7,412.8 982.4,408 982.4,411 970.6,411 957,411 954,411 954,414.7 957,414.7 970.6,414.7 
			982.4,414.8 982.4,417.7 		"/>
		
			<linearGradient id="SVGID_17_" gradientUnits="userSpaceOnUse" x1="197.6913" y1="457.8451" x2="205.5403" y2="457.8451" gradientTransform="matrix(0 1 1 0 453.2143 114.7143)">
			<stop  offset="0" style="stop-color:#8F2E87"/>
			<stop  offset="1" style="stop-color:#3E163C"/>
		</linearGradient>
		<polygon class="st16" points="929.4,316.3 915.6,312.4 915.6,314.8 906,314.8 895.1,314.8 892.7,314.8 892.7,317.8 895.1,317.8 
			906,317.8 915.6,317.8 915.5,320.2 		"/>
		
			<linearGradient id="SVGID_18_" gradientUnits="userSpaceOnUse" x1="197.8462" y1="414.8313" x2="206.7383" y2="414.8313" gradientTransform="matrix(0 1 1 0 453.2143 114.7143)">
			<stop  offset="0" style="stop-color:#8F2E87"/>
			<stop  offset="1" style="stop-color:#3E163C"/>
		</linearGradient>
		<polygon class="st17" points="888.9,317 873.1,312.6 873.1,315.3 862.4,315.3 850,315.3 847.2,315.3 847.2,318.7 850,318.7 
			862.4,318.7 873.1,318.7 873.1,321.4 		"/>
		
			<radialGradient id="SVGID_19_" cx="283.7485" cy="70.5536" r="11.859" gradientTransform="matrix(0 1.1735 1.7619 0 753.1949 118.5908)" gradientUnits="userSpaceOnUse">
			<stop  offset="0" style="stop-color:#61C3E2"/>
			<stop  offset="0.598" style="stop-color:#2A8FC7"/>
			<stop  offset="1" style="stop-color:#0971B7"/>
		</radialGradient>
		<polygon class="st18" points="905.7,451.5 884.4,445.5 884.4,449.2 869.8,449.2 853.1,449.2 849.4,449.2 849.4,453.9 853.1,453.9 
			869.8,453.9 884.4,453.9 884.4,457.5 		"/>
		
			<radialGradient id="SVGID_20_" cx="214.7137" cy="170.6027" r="15.0702" gradientTransform="matrix(0 1.1735 1.7619 0 753.1949 118.5908)" gradientUnits="userSpaceOnUse">
			<stop  offset="0" style="stop-color:#61C3E2"/>
			<stop  offset="0.598" style="stop-color:#2A8FC7"/>
			<stop  offset="1" style="stop-color:#0971B7"/>
		</radialGradient>
		<polygon class="st19" points="1089.5,370.6 1062.5,362.9 1062.5,367.6 1044,367.6 1022.8,367.6 1018,367.6 1018,373.6 
			1022.8,373.6 1044,373.6 1062.5,373.6 1062.5,378.2 		"/>
		
			<linearGradient id="SVGID_21_" gradientUnits="userSpaceOnUse" x1="150.3193" y1="422.4882" x2="159.2189" y2="422.4882" gradientTransform="matrix(0 1 1 0 453.2143 114.7143)">
			<stop  offset="0" style="stop-color:#8F2E87"/>
			<stop  offset="1" style="stop-color:#3E163C"/>
		</linearGradient>
		<polygon class="st20" points="896.5,269.5 880.9,265 880.9,267.7 870.1,267.7 857.7,267.7 854.9,267.7 854.9,271.2 857.7,271.2 
			870.1,271.2 880.8,271.3 880.8,274 		"/>
		
			<radialGradient id="SVGID_22_" cx="208.9938" cy="58.7193" r="6.6084" gradientTransform="matrix(0 1.1735 2.7288 0 711.6943 118.5908)" gradientUnits="userSpaceOnUse">
			<stop  offset="0" style="stop-color:#61C3E2"/>
			<stop  offset="0.598" style="stop-color:#2A8FC7"/>
			<stop  offset="1" style="stop-color:#0971B7"/>
		</radialGradient>
		<polygon class="st21" points="894.7,363.9 877.5,358.9 877.5,361.9 865.8,361.9 852.2,361.9 849.1,361.9 849.1,365.8 852.2,365.8 
			865.7,365.8 877.5,365.8 877.5,368.8 		"/>
		
			<linearGradient id="SVGID_23_" gradientUnits="userSpaceOnUse" x1="206.2091" y1="290.8277" x2="217.6084" y2="290.8277" gradientTransform="matrix(0 1 1.5488 0 429.66 114.7143)">
			<stop  offset="0" style="stop-color:#8F2E87"/>
			<stop  offset="1" style="stop-color:#3E163C"/>
		</linearGradient>
		<polygon class="st22" points="906.8,326.6 886.6,320.9 886.6,324.4 872.9,324.4 857,324.4 853.4,324.4 853.4,328.9 857,328.9 
			872.9,328.9 886.6,328.9 886.6,332.3 		"/>
		
			<radialGradient id="SVGID_24_" cx="225.674" cy="87.975" r="6.2989" gradientTransform="matrix(0 1.1735 2.7288 0 711.6943 118.5908)" gradientUnits="userSpaceOnUse">
			<stop  offset="0" style="stop-color:#61C3E2"/>
			<stop  offset="0.598" style="stop-color:#2A8FC7"/>
			<stop  offset="1" style="stop-color:#0971B7"/>
		</radialGradient>
		<polygon class="st23" points="973.6,383.5 957.1,378.7 957,381.6 945.9,381.6 932.8,381.6 930,381.6 930,385.3 932.8,385.3 
			945.9,385.3 957,385.3 957,388.1 		"/>
		
			<radialGradient id="SVGID_25_" cx="220.1033" cy="56.7386" r="5.8238" gradientTransform="matrix(0 1.1735 2.7288 0 711.6943 118.5908)" gradientUnits="userSpaceOnUse">
			<stop  offset="0" style="stop-color:#61C3E2"/>
			<stop  offset="0.598" style="stop-color:#2A8FC7"/>
			<stop  offset="1" style="stop-color:#0971B7"/>
		</radialGradient>
		<polygon class="st24" points="886.6,376.9 871.4,372.6 871.4,375.2 861.1,375.2 849.1,375.2 846.4,375.2 846.4,378.6 849.1,378.6 
			861.1,378.6 871.4,378.6 871.4,381.2 		"/>
		
			<radialGradient id="SVGID_26_" cx="189.0543" cy="158.6518" r="15.4683" gradientTransform="matrix(0 1.1735 1.7619 0 753.1949 118.5908)" gradientUnits="userSpaceOnUse">
			<stop  offset="0" style="stop-color:#61C3E2"/>
			<stop  offset="0.598" style="stop-color:#2A8FC7"/>
			<stop  offset="1" style="stop-color:#0971B7"/>
		</radialGradient>
		<polygon class="st25" points="1069.4,340.5 1041.7,332.6 1041.7,337.4 1022.9,337.4 1001,337.4 996.1,337.4 996.1,343.5 
			1001,343.5 1022.8,343.5 1041.7,343.5 1041.7,348.3 		"/>
		
			<radialGradient id="SVGID_27_" cx="259.0439" cy="87.4604" r="6.5335" gradientTransform="matrix(0 1.1735 2.7288 0 711.6943 118.5908)" gradientUnits="userSpaceOnUse">
			<stop  offset="0" style="stop-color:#61C3E2"/>
			<stop  offset="0.598" style="stop-color:#2A8FC7"/>
			<stop  offset="1" style="stop-color:#0971B7"/>
		</radialGradient>
		<polygon class="st26" points="973,422.6 955.9,417.7 955.9,420.7 944.3,420.6 930.8,420.6 927.8,420.6 927.8,424.5 930.8,424.5 
			944.3,424.5 955.9,424.5 955.9,427.4 		"/>
		
			<linearGradient id="SVGID_28_" gradientUnits="userSpaceOnUse" x1="167.1693" y1="308.7489" x2="174.6482" y2="308.7489" gradientTransform="matrix(0 1 1.5488 0 429.66 114.7143)">
			<stop  offset="0" style="stop-color:#8F2E87"/>
			<stop  offset="1" style="stop-color:#3E163C"/>
		</linearGradient>
		<polygon class="st27" points="925.4,285.7 912.2,281.9 912.2,284.2 903.1,284.2 892.7,284.2 890.3,284.2 890.3,287.1 892.7,287.1 
			903.1,287.1 912.2,287.1 912.1,289.3 		"/>
		
			<radialGradient id="SVGID_29_" cx="178.8928" cy="110.2366" r="7.4356" gradientTransform="matrix(0 1.1735 2.7288 0 711.6943 118.5908)" gradientUnits="userSpaceOnUse">
			<stop  offset="0" style="stop-color:#61C3E2"/>
			<stop  offset="0.598" style="stop-color:#2A8FC7"/>
			<stop  offset="1" style="stop-color:#0971B7"/>
		</radialGradient>
		<polygon class="st28" points="1038.2,328.6 1018.8,323 1018.8,326.4 1005.5,326.4 990.2,326.4 986.8,326.4 986.8,330.7 
			990.2,330.7 1005.5,330.7 1018.8,330.7 1018.7,334 		"/>
		
			<radialGradient id="SVGID_30_" cx="241.6512" cy="105.7429" r="6.4033" gradientTransform="matrix(0 1.1735 2.7288 0 711.6943 118.5908)" gradientUnits="userSpaceOnUse">
			<stop  offset="0" style="stop-color:#61C3E2"/>
			<stop  offset="0.598" style="stop-color:#2A8FC7"/>
			<stop  offset="1" style="stop-color:#0971B7"/>
		</radialGradient>
		<polygon class="st29" points="1022.4,402.2 1005.6,397.4 1005.6,400.3 994.3,400.3 981.1,400.3 978.2,400.3 978.2,404 981.1,404 
			994.3,404 1005.6,404 1005.6,406.9 		"/>
		
			<linearGradient id="SVGID_31_" gradientUnits="userSpaceOnUse" x1="183.4812" y1="491.1752" x2="197.3018" y2="491.1752" gradientTransform="matrix(0 1 1 0 453.2143 114.7143)">
			<stop  offset="0" style="stop-color:#8F2E87"/>
			<stop  offset="1" style="stop-color:#3E163C"/>
		</linearGradient>
		<polygon class="st30" points="976.7,305.2 952.3,298.2 952.3,302.4 935.6,302.4 916.4,302.4 912.1,302.4 912.1,307.8 916.4,307.8 
			935.6,307.8 952.3,307.8 952.3,312 		"/>
		
			<radialGradient id="SVGID_32_" cx="233.375" cy="88.6765" r="9.1653" gradientTransform="matrix(0 1.1735 2.7288 0 711.6943 118.5908)" gradientUnits="userSpaceOnUse">
			<stop  offset="0" style="stop-color:#61C3E2"/>
			<stop  offset="0.598" style="stop-color:#2A8FC7"/>
			<stop  offset="1" style="stop-color:#0971B7"/>
		</radialGradient>
		<polygon class="st31" points="985.4,392.5 961.4,385.7 961.4,389.8 945.1,389.8 926.3,389.8 922,389.8 922,395.1 926.1,395.1 
			945.1,395.1 961.4,395.1 961.4,399.2 		"/>
		
			<radialGradient id="SVGID_33_" cx="276.2501" cy="65.4452" r="11.2161" gradientTransform="matrix(0 1.1735 2.7288 0 711.6943 118.5908)" gradientUnits="userSpaceOnUse">
			<stop  offset="0" style="stop-color:#61C3E2"/>
			<stop  offset="0.598" style="stop-color:#2A8FC7"/>
			<stop  offset="1" style="stop-color:#0971B7"/>
		</radialGradient>
		<polygon class="st32" points="929.1,442.8 899.8,434.4 899.8,439.5 879.8,439.5 856.7,439.5 851.6,439.5 851.5,446 856.7,446 
			879.8,446 899.8,446 899.7,451 		"/>
		
			<radialGradient id="SVGID_34_" cx="188.6579" cy="56.2228" r="6.2115" gradientTransform="matrix(0 1.1735 2.7288 0 711.6943 118.5908)" gradientUnits="userSpaceOnUse">
			<stop  offset="0" style="stop-color:#61C3E2"/>
			<stop  offset="0.598" style="stop-color:#2A8FC7"/>
			<stop  offset="1" style="stop-color:#0971B7"/>
		</radialGradient>
		<polygon class="st33" points="886.6,340 870.4,335.4 870.4,338.2 859.3,338.2 846.5,338.2 843.7,338.2 843.6,341.8 846.5,341.8 
			859.3,341.8 870.4,341.8 870.3,344.5 		"/>
		
			<radialGradient id="SVGID_35_" cx="259.7958" cy="74.1005" r="12.878" gradientTransform="matrix(0 1.1735 1.7619 0 753.1949 118.5908)" gradientUnits="userSpaceOnUse">
			<stop  offset="0" style="stop-color:#61C3E2"/>
			<stop  offset="0.598" style="stop-color:#2A8FC7"/>
			<stop  offset="1" style="stop-color:#0971B7"/>
		</radialGradient>
		<polygon class="st34" points="914.3,423.5 891.2,416.9 891.2,420.9 875.5,420.9 857.2,420.9 853.2,420.9 853.2,426 857.2,426 
			875.4,426 891.1,426 891.1,429.9 		"/>
		
			<radialGradient id="SVGID_36_" cx="186.4979" cy="95.2" r="6.0268" gradientTransform="matrix(0 1.1735 2.7288 0 711.6943 118.5908)" gradientUnits="userSpaceOnUse">
			<stop  offset="0" style="stop-color:#61C3E2"/>
			<stop  offset="0.598" style="stop-color:#2A8FC7"/>
			<stop  offset="1" style="stop-color:#0971B7"/>
		</radialGradient>
		<polygon class="st35" points="992.4,337.5 976.6,333 976.6,335.7 965.8,335.7 953.4,335.7 950.7,335.7 950.7,339.2 953.4,339.2 
			965.8,339.2 976.6,339.2 976.6,341.9 		"/>
		
			<radialGradient id="SVGID_37_" cx="232.672" cy="148.9376" r="10.6267" gradientTransform="matrix(0 1.1735 1.7619 0 753.1949 118.5908)" gradientUnits="userSpaceOnUse">
			<stop  offset="0" style="stop-color:#61C3E2"/>
			<stop  offset="0.598" style="stop-color:#2A8FC7"/>
			<stop  offset="1" style="stop-color:#0971B7"/>
		</radialGradient>
		<polygon class="st36" points="1040.8,391.6 1021.7,386.2 1021.7,389.5 1008.8,389.5 993.8,389.5 990.4,389.5 990.4,393.7 
			993.8,393.7 1008.8,393.7 1021.7,393.7 1021.7,397 		"/>
		
			<radialGradient id="SVGID_38_" cx="250.7901" cy="61.2868" r="7.4358" gradientTransform="matrix(0 1.1735 1.7619 0 753.1949 118.5908)" gradientUnits="userSpaceOnUse">
			<stop  offset="0" style="stop-color:#61C3E2"/>
			<stop  offset="0.598" style="stop-color:#2A8FC7"/>
			<stop  offset="1" style="stop-color:#0971B7"/>
		</radialGradient>
		<polygon class="st37" points="878.9,412.9 865.5,409.1 865.5,411.4 856.3,411.4 845.9,411.4 843.5,411.4 843.5,414.3 845.9,414.3 
			856.3,414.3 865.5,414.3 865.5,416.7 		"/>
		
			<linearGradient id="SVGID_39_" gradientUnits="userSpaceOnUse" x1="156.7348" y1="457.9014" x2="167.6841" y2="457.9014" gradientTransform="matrix(0 1 1 0 453.2143 114.7143)">
			<stop  offset="0" style="stop-color:#8F2E87"/>
			<stop  offset="1" style="stop-color:#3E163C"/>
		</linearGradient>
		<polygon class="st38" points="936.7,277 917.4,271.5 917.4,274.8 904.2,274.8 888.9,274.8 885.5,274.8 885.5,279.1 888.9,279.1 
			904.1,279.1 917.4,279.1 917.4,282.4 		"/>
		
			<linearGradient id="SVGID_40_" gradientUnits="userSpaceOnUse" x1="188.6174" y1="286.7564" x2="196.8429" y2="286.7564" gradientTransform="matrix(0 1 1.5488 0 429.66 114.7143)">
			<stop  offset="0" style="stop-color:#8F2E87"/>
			<stop  offset="1" style="stop-color:#3E163C"/>
		</linearGradient>
		<polygon class="st39" points="893,307.5 878.4,303.4 878.4,305.8 868.5,305.8 857,305.8 854.5,305.8 854.5,309.1 857,309.1 
			868.5,309.1 878.4,309.1 878.4,311.5 		"/>
		
			<radialGradient id="SVGID_41_" cx="198.1293" cy="63.382" r="10.2126" gradientTransform="matrix(0 1.1735 2.7288 0 711.6943 118.5908)" gradientUnits="userSpaceOnUse">
			<stop  offset="0" style="stop-color:#61C3E2"/>
			<stop  offset="0.598" style="stop-color:#2A8FC7"/>
			<stop  offset="1" style="stop-color:#0971B7"/>
		</radialGradient>
		<polygon class="st40" points="920,351.1 893.4,343.6 893.3,348.1 875.1,348.1 854.1,348.1 849.4,348.1 849.4,354 854.1,354 
			875.1,354 893.3,354.1 893.3,358.6 		"/>
		
			<radialGradient id="SVGID_42_" cx="231.3619" cy="60.3698" r="8.3452" gradientTransform="matrix(0 1.1735 2.7288 0 711.6943 118.5908)" gradientUnits="userSpaceOnUse">
			<stop  offset="0" style="stop-color:#61C3E2"/>
			<stop  offset="0.598" style="stop-color:#2A8FC7"/>
			<stop  offset="1" style="stop-color:#0971B7"/>
		</radialGradient>
		<polygon class="st41" points="905.3,390.1 883.5,383.9 883.5,387.7 868.6,387.7 851.4,387.7 847.6,387.7 847.6,392.5 851.4,392.5 
			868.6,392.5 883.5,392.5 883.5,396.3 		"/>
		
			<linearGradient id="SVGID_43_" gradientUnits="userSpaceOnUse" x1="175.1428" y1="290.3915" x2="190.0153" y2="290.3915" gradientTransform="matrix(0 1 1.5488 0 429.66 114.7143)">
			<stop  offset="0" style="stop-color:#8F2E87"/>
			<stop  offset="1" style="stop-color:#3E163C"/>
		</linearGradient>
		<polygon class="st42" points="914.2,297.3 888,289.9 887.9,294.4 870,294.4 849.2,294.4 844.6,294.4 844.6,300.2 849.2,300.2 
			870,300.2 887.9,300.2 887.9,304.7 		"/>
		
			<radialGradient id="SVGID_44_" cx="215.8001" cy="77.5766" r="10.7413" gradientTransform="matrix(0 1.1735 2.7288 0 711.6943 118.5908)" gradientUnits="userSpaceOnUse">
			<stop  offset="0" style="stop-color:#61C3E2"/>
			<stop  offset="0.598" style="stop-color:#2A8FC7"/>
			<stop  offset="1" style="stop-color:#0971B7"/>
		</radialGradient>
		<polygon class="st43" points="960.5,371.8 932.5,363.9 932.5,368.8 913.3,368.7 891.2,368.7 886.3,368.7 886.3,374.9 891.2,374.9 
			913.3,374.9 932.5,374.9 932.5,379.8 		"/>
		
			<linearGradient id="SVGID_45_" gradientUnits="userSpaceOnUse" x1="163.8185" y1="282.3943" x2="172.3811" y2="282.3943" gradientTransform="matrix(0 1 1.5488 0 429.66 114.7143)">
			<stop  offset="0" style="stop-color:#8F2E87"/>
			<stop  offset="1" style="stop-color:#3E163C"/>
		</linearGradient>
		<polygon class="st44" points="887.1,282.8 871.9,278.5 871.9,281.2 861.6,281.2 849.7,281.2 847,281.2 847,284.5 849.7,284.5 
			861.6,284.5 871.9,284.5 871.9,287.1 		"/>
		
			<radialGradient id="SVGID_46_" cx="198.2085" cy="131.6523" r="5.3698" gradientTransform="matrix(0 1.1735 2.7288 0 711.6943 118.5908)" gradientUnits="userSpaceOnUse">
			<stop  offset="0" style="stop-color:#61C3E2"/>
			<stop  offset="0.598" style="stop-color:#2A8FC7"/>
			<stop  offset="1" style="stop-color:#0971B7"/>
		</radialGradient>
		<polygon class="st45" points="1089.5,351.2 1075.5,347.2 1075.5,349.6 1066,349.6 1054.9,349.6 1052.5,349.6 1052.4,352.7 
			1054.9,352.7 1065.9,352.7 1075.5,352.7 1075.5,355.2 		"/>
		
			<radialGradient id="SVGID_47_" cx="194.4429" cy="107.4289" r="8.5245" gradientTransform="matrix(0 1.1735 1.7619 0 753.1949 118.5908)" gradientUnits="userSpaceOnUse">
			<stop  offset="0" style="stop-color:#61C3E2"/>
			<stop  offset="0.598" style="stop-color:#2A8FC7"/>
			<stop  offset="1" style="stop-color:#0971B7"/>
		</radialGradient>
		<polygon class="st46" points="962.7,346.8 947.4,342.4 947.4,345.1 937,345.1 924.9,345.1 922.2,345.1 922.2,348.4 924.9,348.4 
			937,348.4 947.4,348.4 947.4,351.1 		"/>
		
			<radialGradient id="SVGID_48_" cx="241.3316" cy="57.2338" r="5.748" gradientTransform="matrix(0 1.1735 2.7288 0 711.6943 118.5908)" gradientUnits="userSpaceOnUse">
			<stop  offset="0" style="stop-color:#61C3E2"/>
			<stop  offset="0.598" style="stop-color:#2A8FC7"/>
			<stop  offset="1" style="stop-color:#0971B7"/>
		</radialGradient>
		<polygon class="st47" points="887.8,401.8 872.8,397.6 872.7,400.1 862.5,400.1 850.7,400.1 848,400.1 848,403.5 850.6,403.5 
			862.4,403.5 872.7,403.5 872.7,406 		"/>
		
			<radialGradient id="SVGID_49_" cx="206.6931" cy="138.4608" r="6.0488" gradientTransform="matrix(0 1.1735 2.7288 0 711.6943 118.5908)" gradientUnits="userSpaceOnUse">
			<stop  offset="0" style="stop-color:#61C3E2"/>
			<stop  offset="0.598" style="stop-color:#2A8FC7"/>
			<stop  offset="1" style="stop-color:#0971B7"/>
		</radialGradient>
		<polygon class="st48" points="1110.5,361.1 1094.7,356.7 1094.6,359.4 1083.9,359.4 1071.4,359.4 1068.7,359.4 1068.6,362.9 
			1071.4,362.9 1083.9,362.9 1094.6,362.9 1094.6,365.6 		"/>
		
			<radialGradient id="SVGID_50_" cx="239.9038" cy="71.0983" r="6.5228" gradientTransform="matrix(0 1.1735 2.7288 0 711.6943 118.5908)" gradientUnits="userSpaceOnUse">
			<stop  offset="0" style="stop-color:#61C3E2"/>
			<stop  offset="0.598" style="stop-color:#2A8FC7"/>
			<stop  offset="1" style="stop-color:#0971B7"/>
		</radialGradient>
		<polygon class="st49" points="928.3,400.1 911.3,395.3 911.2,398.2 899.6,398.2 886.2,398.2 883.1,398.2 883.1,402 886.2,402 
			899.6,402 911.2,402 911.2,404.9 		"/>
		
			<radialGradient id="SVGID_51_" cx="221.2004" cy="136.4115" r="13.5233" gradientTransform="matrix(0 1.1735 1.7619 0 753.1949 118.5908)" gradientUnits="userSpaceOnUse">
			<stop  offset="0" style="stop-color:#61C3E2"/>
			<stop  offset="0.598" style="stop-color:#2A8FC7"/>
			<stop  offset="1" style="stop-color:#0971B7"/>
		</radialGradient>
		<polygon class="st50" points="1025.6,378.2 1001.4,371.3 1001.4,375.5 984.9,375.5 965.8,375.5 961.5,375.5 961.5,380.8 
			965.8,380.8 984.8,380.8 1001.4,380.8 1001.4,385 		"/>
		
			<radialGradient id="SVGID_52_" cx="242.8654" cy="112.3179" r="11.1145" gradientTransform="matrix(0 1.1735 1.7619 0 753.1949 118.5908)" gradientUnits="userSpaceOnUse">
			<stop  offset="0" style="stop-color:#61C3E2"/>
			<stop  offset="0.598" style="stop-color:#2A8FC7"/>
			<stop  offset="1" style="stop-color:#0971B7"/>
		</radialGradient>
		<polygon class="st51" points="977.5,403.6 957.6,397.9 957.5,401.4 943.9,401.4 928.2,401.4 924.7,401.4 924.7,405.8 928.2,405.8 
			943.8,405.8 957.5,405.8 957.5,409.2 		"/>
		
			<radialGradient id="SVGID_53_" cx="177.2312" cy="87.9338" r="5.3541" gradientTransform="matrix(0 1.1735 2.7288 0 711.6943 118.5908)" gradientUnits="userSpaceOnUse">
			<stop  offset="0" style="stop-color:#61C3E2"/>
			<stop  offset="0.598" style="stop-color:#2A8FC7"/>
			<stop  offset="1" style="stop-color:#0971B7"/>
		</radialGradient>
		<polygon class="st52" points="970.2,326.6 956.2,322.6 956.2,325 946.6,325 935.6,325 933.1,325 933.1,328.1 935.6,328.1 
			946.6,328.1 956.2,328.1 956.1,330.5 		"/>
	</g>
	<g>
		
			<linearGradient id="SVGID_54_" gradientUnits="userSpaceOnUse" x1="287.9222" y1="457.3481" x2="430.5884" y2="457.3481" gradientTransform="matrix(1 0 0 -1 0 628)">
			<stop  offset="0" style="stop-color:#8F2E87"/>
			<stop  offset="1" style="stop-color:#3E163C"/>
		</linearGradient>
		<path class="st53" d="M303.7,157.5c14.9-8.8,33.4-13.2,55.5-13.2c22.1,0,40.6,4.4,55.6,13.2c6.2,3.7,11.5,8,15.8,13.2
			c-4.3,5.1-9.6,9.5-15.8,13.1c-15,8.8-33.4,13.2-55.6,13.2c-22.1,0-40.6-4.4-55.5-13.2c-6.2-3.6-11.5-8-15.8-13.1
			C292.2,165.6,297.4,161.2,303.7,157.5z M340.6,182.8c5.2,3.4,11.4,5,18.6,5c7.2,0,13.5-1.6,18.6-5c5.2-3.4,7.8-7.4,7.8-12.1
			c0-2.2-0.6-4.2-1.8-6.2l6.6-1.3c1.4,2.5,2,5,2,7.6c0,4.3-1.8,8.2-5.3,11.8c-3.5,3.5-8.2,6.1-14.1,7.9c13.5-1.6,24.8-5.3,34.1-11.2
			c3.8-2.5,7.1-5.3,9.8-8.5c-9.3-10.9-24-17.5-44.1-19.8l-2.7,4.1c-3.5-1-7.1-1.6-10.9-1.6c-7.2,0-13.5,1.6-18.6,5
			c-5.2,3.4-7.8,7.4-7.8,12.1C332.9,175.4,335.4,179.5,340.6,182.8z M345.1,161.5c3.9-2.5,8.6-3.8,14.1-3.8c2.8,0,5.4,0.4,7.9,1.1
			l-9.6,13.4l20.4-6.1c0.8,1.5,1.2,3,1.2,4.6c0,3.6-1.9,6.7-5.9,9.2c-3.8,2.5-8.6,3.8-14.1,3.8c-5.5,0-10.1-1.3-14.1-3.8
			c-3.9-2.5-5.9-5.6-5.9-9.2C339.3,167.1,341.3,164,345.1,161.5z M345.5,190.4c-5.9-1.7-10.5-4.3-14.1-7.9
			c-3.6-3.5-5.4-7.5-5.4-11.8c0-4.3,1.8-8.3,5.5-11.9c3.6-3.5,8.3-6.1,14.3-7.8c-13.6,1.5-25.1,5.2-34.5,11.2
			c-3.8,2.5-7.2,5.3-9.9,8.5C310.8,181.6,325.4,188.1,345.5,190.4z"/>
	</g>
	<g>
		
			<linearGradient id="SVGID_55_" gradientUnits="userSpaceOnUse" x1="652.0757" y1="457.3481" x2="794.7419" y2="457.3481" gradientTransform="matrix(1 0 0 -1 0 628)">
			<stop  offset="0" style="stop-color:#8F2E87"/>
			<stop  offset="1" style="stop-color:#3E163C"/>
		</linearGradient>
		<path class="st54" d="M794.7,170.7c-4.3,5.1-9.5,9.5-15.8,13.1c-14.9,8.8-33.4,13.2-55.5,13.2s-40.6-4.4-55.6-13.2
			c-6.2-3.6-11.5-8-15.8-13.1c4.3-5.1,9.6-9.5,15.8-13.2c15-8.8,33.4-13.2,55.6-13.2c22.1,0,40.6,4.4,55.5,13.2
			C785.3,161.2,790.6,165.6,794.7,170.7z M749.8,170.7c0-4.7-2.6-8.8-7.8-12.1c-5.2-3.4-11.4-5-18.6-5c-3.8,0-7.4,0.5-10.9,1.6
			l-2.7-4.1c-20.2,2.3-34.8,8.8-44.1,19.8c2.7,3.1,6,6,9.8,8.5c9.2,5.9,20.6,9.7,34.1,11.2c-5.9-1.7-10.5-4.3-14.1-7.9
			c-3.6-3.5-5.3-7.5-5.3-11.8c0-2.6,0.7-5.2,2-7.6l6.6,1.3c-1.2,2-1.8,4.1-1.8,6.2c0,4.7,2.6,8.8,7.8,12.1c5.2,3.4,11.4,5,18.6,5
			s13.5-1.6,18.6-5C747.2,179.5,749.8,175.4,749.8,170.7z M743.4,170.7c0,3.6-1.9,6.7-5.9,9.2c-3.9,2.5-8.6,3.8-14.1,3.8
			c-5.5,0-10.2-1.3-14.1-3.8c-3.8-2.5-5.9-5.6-5.9-9.2c0-1.6,0.5-3.1,1.2-4.6l20.4,6.1l-9.6-13.4c2.5-0.7,5.2-1.1,7.9-1.1
			c5.5,0,10.1,1.3,14.1,3.8C741.5,164,743.4,167.1,743.4,170.7z M781.2,170.7c-2.7-3.1-6-6-9.9-8.5c-9.3-6-20.8-9.7-34.5-11.2
			c6,1.7,10.7,4.3,14.3,7.8c3.6,3.6,5.5,7.6,5.5,11.9c0,4.3-1.8,8.2-5.4,11.8c-3.6,3.5-8.2,6.1-14.1,7.9
			C757.4,188.1,772,181.6,781.2,170.7z"/>
	</g>
	<g>
		<g>
			
				<linearGradient id="SVGID_56_" gradientUnits="userSpaceOnUse" x1="119.2451" y1="234.6118" x2="413.473" y2="234.6118" gradientTransform="matrix(1 0 0 -1 0 628)">
				<stop  offset="0" style="stop-color:#8F2E87"/>
				<stop  offset="1" style="stop-color:#3E163C"/>
			</linearGradient>
			<path class="st55" d="M119.2,492.6V337.2h99.9l87.9,85.9l6.1-3.4L264.4,372v-18.1c0-33,37.3-59.8,83.2-59.8
				c25.6,0,54.8,7.2,65,19.8l0.9,1.1l-1.9,0.5c-26.9,7.1-40.4,26.9-40.4,43.9v133.2h-87.7l-98-95.3l-6.8,2.7l73,71l-0.1,0.3
				c-0.2,11.8-16.4,21.3-36.5,21.3L119.2,492.6L119.2,492.6z"/>
			
				<linearGradient id="SVGID_57_" gradientUnits="userSpaceOnUse" x1="124.8751" y1="231.237" x2="419.1031" y2="231.237" gradientTransform="matrix(1 0 0 -1 0 628)">
				<stop  offset="0" style="stop-color:#8F2E87"/>
				<stop  offset="1" style="stop-color:#3E163C"/>
			</linearGradient>
			<path class="st56" d="M124.9,495.9V340.6h99.9l87.9,85.9l6.1-3.4L270,375.4v-18.1c0-33,37.3-59.8,83.2-59.8
				c25.6,0,54.8,7.2,65,19.8l0.9,1.1l-1.9,0.5c-26.9,7.1-40.4,26.9-40.4,43.9V496H289l-98-95.3l-6.8,2.7l73,71l-0.1,0.3
				c-0.2,11.8-16.4,21.3-36.5,21.3L124.9,495.9L124.9,495.9z"/>
		</g>
	</g>
	<g>
		
			<radialGradient id="SVGID_58_" cx="280.1158" cy="354.7358" r="67.9042" gradientTransform="matrix(1.7619 0 0 1.1735 -45.3289 -16.0236)" gradientUnits="userSpaceOnUse">
			<stop  offset="0" style="stop-color:#61C3E2"/>
			<stop  offset="0.598" style="stop-color:#2A8FC7"/>
			<stop  offset="1" style="stop-color:#0971B7"/>
		</radialGradient>
		<path class="st57" d="M448,311.5c14.4,0,28,2.3,40.6,7c12.7,4.6,23.8,10.9,33.2,18.9c9.5,7.9,17,17.4,22.4,28.3
			c5.5,10.9,8.2,22.5,8.2,34.7c0,12.2-2.7,23.8-8.2,34.6c-5.5,10.8-12.9,20.2-22.4,28.1c-9.5,7.9-20.6,14.2-33.2,18.9
			c-12.7,4.6-26.2,7-40.6,7c-14.4,0-27.9-2.3-40.4-7c-12.6-4.6-23.5-10.9-33.1-18.9c-9.5-7.9-17-17.3-22.4-28.1
			c-5.5-10.8-8.2-22.3-8.2-34.6c0-12.2,2.7-23.8,8.2-34.7c5.5-10.9,12.9-20.3,22.4-28.3c9.5-7.9,20.5-14.2,33.1-18.9
			C420.2,313.9,433.6,311.5,448,311.5z M448,340.9c-9.6,0-18.7,1.5-27.2,4.6c-8.6,3.1-16,7.3-22.4,12.7c-6.4,5.4-11.4,11.8-15,19
			c-3.6,7.3-5.4,15-5.4,23.2c0,8.2,1.8,15.9,5.4,23.2c3.6,7.3,8.7,13.6,15,18.9c6.4,5.3,13.9,9.6,22.4,12.7
			c8.6,3.1,17.7,4.8,27.2,4.8s18.7-1.6,27.2-4.8c8.6-3.1,16-7.4,22.4-12.7c6.4-5.3,11.4-11.6,15-18.9s5.4-15,5.4-23.2
			c0-8.2-1.8-15.9-5.4-23.2s-8.6-13.6-15-19c-6.4-5.4-13.9-9.7-22.4-12.7C466.7,342.4,457.7,340.9,448,340.9z"/>
		
			<radialGradient id="SVGID_59_" cx="428.8315" cy="283.1701" r="83.4498" gradientTransform="matrix(1.7619 0 0 -1.1735 -45.3289 720.9191)" gradientUnits="userSpaceOnUse">
			<stop  offset="0" style="stop-color:#61C3E2"/>
			<stop  offset="0.598" style="stop-color:#2A8FC7"/>
			<stop  offset="1" style="stop-color:#0971B7"/>
		</radialGradient>
		<path class="st58" d="M563.9,290.2L563.9,290.2c8.7,5.5,20.7,14.5,29.1,27.4c9.2,14.3,9.6,26.6,9.2,46.1
			c-0.3,19.9-1.4,42.9-3.4,68.7c0,1.9,0.2,4.8,1.6,8c0.6,1.4,1.4,2.8,2.3,4.1c2.6,3.8,5.9,7.2,10,10c4.2,2.8,9.1,5.1,14.9,6.7
			c5.7,1.6,11.8,2.4,18.2,2.4c6.4,0,12.5-0.8,18.2-2.4c5.7-1.6,10.8-3.8,15-6.7c4.3-2.8,7.7-6.1,10.2-10c2.6-3.8,3.8-7.9,3.8-12.1
			V301.9c0-6.4,7.8-11.6,17.5-11.6l0,0c9.7,0,17.5,5.2,17.5,11.6v130.6c0,4.3,1.2,8.3,3.6,12.1c2.4,3.8,5.7,7.2,10,10
			c4.3,2.8,9.2,5.1,15,6.7c5.7,1.6,11.8,2.4,18.2,2.4c6.4,0,12.5-0.8,18.2-2.4c5.7-1.6,10.7-3.8,14.9-6.7c4.2-2.8,7.4-6.1,10-10
			c1-1.4,1.7-2.9,2.4-4.4c0,0,1.5-3.7,1.5-7.7c0-11.5-16.3-76,6.2-114.1c4.3-7.2,12.3-17.4,28.6-28.2v142.3c0,7.6-2.1,14.8-6.4,21.4
			c-4.3,6.6-10.1,12.3-17.7,17.2c-7.4,4.9-16.2,8.8-26,11.6c-9.9,2.8-20.5,4.3-31.6,4.3c-13.1,0-25.2-1.9-36.5-5.6
			c-11.3-3.7-20.6-8.7-28-14.9c-7.4,6.2-16.8,11.2-28,14.9c-11.3,3.7-23.4,5.6-36.5,5.6c-11.3,0-21.7-1.4-31.6-4.3
			c-9.9-2.8-18.6-6.7-26-11.6c-7.4-4.9-13.4-10.6-17.7-17.2c-4.3-6.6-6.4-13.7-6.4-21.4V290.2H563.9z"/>
	</g>
	<g>
		
			<linearGradient id="SVGID_60_" gradientUnits="userSpaceOnUse" x1="503.4396" y1="500.6337" x2="687.4327" y2="500.6337" gradientTransform="matrix(1 0 0 -1 0 628)">
			<stop  offset="0" style="stop-color:#8F2E87"/>
			<stop  offset="1" style="stop-color:#3E163C"/>
		</linearGradient>
		<path class="st59" d="M513.7,0h23c5.7,0,10.4,3.1,10.4,6.9v199c0,1.6,0.3,3.2,1.1,4.8c0,0,2.3,4.6,9.9,8.5c8,4.1,31,7.2,61.5,6
			c4.4,4.3,11,9.8,20.6,14.8c18.2,9.6,37.2,12.7,47.3,13.7c-58.7,1.6-102.8,1-119.2-1c-8.1-1-15.2-2.8-15.2-2.8
			c-9.8-2.5-18.4-5.9-25.7-10.3c-7.3-4.3-13.2-9.4-17.5-15.2c-4.3-5.8-6.4-12-6.4-18.6V6.8C503.3,3.1,507.9,0,513.7,0z"/>
		
			<linearGradient id="SVGID_61_" gradientUnits="userSpaceOnUse" x1="227.0047" y1="425.925" x2="494.8839" y2="425.925" gradientTransform="matrix(1 0 0 -1 0 628)">
			<stop  offset="0" style="stop-color:#8F2E87"/>
			<stop  offset="1" style="stop-color:#3E163C"/>
		</linearGradient>
		<path class="st60" d="M413.2,82.2c16.1,4.6,30.2,11,42.3,19.1c12.2,8.1,21.7,17.5,28.7,28.3s10.6,22.4,10.6,34.7
			s-3.5,23.8-10.6,34.7c-7,10.8-16.6,20.2-28.7,28.2s-26.2,14.3-42.3,19c-16.1,4.6-33.3,7-51.8,7c-17.5,0-33.8-2-49-6
			c-15.2-4-28.8-9.5-40.8-16.6v19.1c-13.2,26.4-26.3,52.7-39.5,79.1c-1.7-54.8-3.4-109.7-5.2-164.5c0-12.3,3.5-23.8,10.5-34.7
			c7-10.8,16.6-20.2,28.7-28.3c12.2-8.1,26.5-14.5,42.9-19.1c16.4-4.6,33.9-7,52.4-7C379.9,75.2,397.1,77.5,413.2,82.2z M326,109.2
			c-10.9,3.1-20.5,7.3-28.5,12.8c-8,5.5-14.4,11.8-19,19.1c-4.6,7.3-7,15.1-7,23.2s2.4,16,7,23.2c4.6,7.3,10.9,13.6,19,19
			c8,5.3,17.6,9.6,28.5,12.8c10.9,3.2,22.7,4.8,35.5,4.8c12.3,0,24-1.6,34.9-4.8c10.9-3.1,20.5-7.5,28.5-12.8
			c8-5.3,14.4-11.7,19.3-19c4.8-7.3,7.2-15.1,7.2-23.2c0-8.2-2.4-16-7.2-23.2c-4.8-7.3-11.3-13.6-19.3-19.1s-17.6-9.7-28.5-12.8
			c-10.9-3.1-22.6-4.6-34.9-4.6C348.7,104.6,336.9,106.1,326,109.2z"/>
		
			<linearGradient id="SVGID_62_" gradientUnits="userSpaceOnUse" x1="866.8069" y1="502.5703" x2="1106.8737" y2="502.5703" gradientTransform="matrix(1 0 0 -1 0 628)">
			<stop  offset="0" style="stop-color:#8F2E87"/>
			<stop  offset="1" style="stop-color:#3E163C"/>
		</linearGradient>
		<path class="st61" d="M994.6,0.7c14.4,0,27.9,1.8,40.8,5.5c12.8,3.7,24,8.7,33.3,15.1c9.5,6.4,16.9,13.8,22.3,22.2
			c5.5,8.4,8.2,17.5,8.2,27.4c0,22.1-12.2,39.7-36.5,52.6c12.9,6.4,23.6,14.6,31.9,24.6c8.2,10,12.3,20.8,12.3,32.5
			c0,9.6-2.7,18.6-8.2,27.1c-5.5,8.5-12.9,16-22.3,22.2c-9.5,6.3-20.5,11.2-33.3,14.8c-12.8,3.7-26.5,5.5-40.8,5.5H866.8V0.7H994.6z
			 M994.6,110.4c8.2,0,15.9-1,23.1-3.1c7.2-2,13.5-4.9,19-8.5c5.5-3.7,9.8-7.9,12.8-12.7c3-4.8,4.6-9.9,4.6-15.4s-1.6-10.6-4.6-15.5
			c-3-4.9-7.3-9.1-12.8-12.8c-5.5-3.7-11.8-6.5-19-8.5c-7.2-2-14.9-3.1-23.1-3.1h-83.1v79.6L994.6,110.4L994.6,110.4z M1002.3,140.2
			c-0.7,0-1.2,0.1-1.8,0.1c-0.6,0.1-1.1,0.1-1.8,0.1h-87.3v80h90.9c8.2,0,16-1,23.3-3.1c7.3-2,13.6-4.9,19-8.5
			c5.3-3.7,9.6-7.9,12.8-12.8c3.3-4.9,4.8-10,4.8-15.5c0-5.5-1.6-10.6-4.8-15.5c-3.3-4.9-7.5-9.1-12.8-12.8s-11.6-6.5-19-8.7
			C1018.3,141.2,1010.5,140.2,1002.3,140.2z"/>
		
			<linearGradient id="SVGID_63_" gradientUnits="userSpaceOnUse" x1="592.7346" y1="426" x2="861.0242" y2="426" gradientTransform="matrix(1 0 0 -1 0 628)">
			<stop  offset="0" style="stop-color:#8F2E87"/>
			<stop  offset="1" style="stop-color:#3E163C"/>
		</linearGradient>
		<path class="st62" d="M726.2,75.2c18.5,0,35.9,2.3,52.4,7c16.4,4.6,30.7,11,42.9,19.1s21.7,17.5,28.7,28.3
			c9.6,14.7,10.2,28.9,10.5,34.7c1,22.5,0.3,83.1-4.2,164.4c-13.5-26.3-27-52.6-40.5-79v-19.1c-11.9,7-25.6,12.6-40.8,16.6
			c-15.2,4-31.5,6-49,6c-18.5,0-35.8-2.3-51.8-7c-16.1-4.6-30.2-11-42.3-19c-12.2-7.9-21.7-17.4-28.7-28.2
			c-7-10.8-10.6-22.4-10.6-34.7s3.5-23.8,10.6-34.7c7-10.8,16.6-20.2,28.7-28.3s26.2-14.5,42.3-19.1
			C690.4,77.5,707.6,75.2,726.2,75.2z M726.2,104.6c-12.3,0-24,1.6-34.9,4.6c-10.9,3.1-20.5,7.3-28.5,12.8s-14.4,11.8-19.3,19.1
			c-4.8,7.3-7.2,15.1-7.2,23.2c0,8.2,2.4,16,7.2,23.2c4.8,7.3,11.3,13.6,19.3,19c8,5.3,17.6,9.6,28.5,12.8
			c10.9,3.2,22.6,4.8,34.9,4.8c12.6,0,24.4-1.6,35.5-4.8c10.9-3.1,20.5-7.5,28.5-12.8s14.4-11.7,19-19c4.6-7.3,7-15.1,7-23.2
			s-2.4-16-7-23.2c-4.6-7.3-10.9-13.6-19-19.1c-8-5.5-17.6-9.7-28.5-12.8C750.6,106.1,738.8,104.6,726.2,104.6z"/>
	</g>
</g>
</svg>
