<?xml version="1.0" encoding="utf-8"?>
<!-- Generator: Adobe Illustrator 25.0.0, SVG Export Plug-In . SVG Version: 6.00 Build 0)  -->
<svg version="1.1" id="_x32_71e5882-3c8d-41ed-8a0a-1cb2b4d0cbc1"
	 xmlns="http://www.w3.org/2000/svg" xmlns:xlink="http://www.w3.org/1999/xlink" x="0px" y="0px" viewBox="0 0 1137.7 859.7"
	 style="enable-background:new 0 0 1137.7 859.7;" xml:space="preserve">
<style type="text/css">
	.st0{fill:none;stroke:#3F2B3B;stroke-miterlimit:10;}
	.st1{fill:#007BFF;}
	.st2{opacity:0.5;fill:#FFFFFF;enable-background:new    ;}
	.st3{opacity:0.1;fill:#007BFF;enable-background:new    ;}
	.st4{fill:#454B69;}
	.st5{fill:none;}
	.st6{opacity:0.4;enable-background:new    ;}
	.st7{opacity:0.1;enable-background:new    ;}
	.st8{fill:#EFB7B9;}
	.st9{fill:#FFFFFF;}
	.st10{opacity:0.1;}
	.st11{opacity:8.000000e-02;enable-background:new    ;}
	.st12{fill:#3F3D56;}
	.st13{fill:#9C9CA1;}
	.st14{fill:#939498;}
</style>
<path class="st0" d="M493,834.5c0,0,2.6,5.9,6.1,0.9"/>
<path class="st0" d="M487.1,836.9c0,0,1.3,5.6,6.4,1.4"/>
<path class="st0" d="M572.5,834.5c0,0-2.6,5.9-6.1,0.9"/>
<path class="st0" d="M578.4,836.9c0,0-1.3,5.6-6.4,1.4"/>
<path class="st0" d="M510.2,849.3c0,0-3.2,3-1.5,4.8"/>
<path class="st0" d="M508.8,847.4c0,0-2.9,1-2.9,3.7"/>
<path class="st0" d="M555.1,849.3c0,0,3.2,3,1.5,4.8"/>
<path class="st0" d="M556.5,847.4c0,0,2.9,1,2.9,3.7"/>
<ellipse transform="matrix(0.867 -0.4983 0.4983 0.867 -355.1414 360.9951)" class="st1" cx="498.7" cy="845.8" rx="2.3" ry="3.8"/>
<ellipse transform="matrix(0.5 -0.866 0.866 0.5 -445.0117 913.9047)" class="st1" cx="569" cy="842.3" rx="3.8" ry="2.3"/>
<ellipse transform="matrix(0.867 -0.4983 0.4983 0.867 -355.1414 360.9951)" class="st2" cx="498.7" cy="845.8" rx="2.3" ry="3.8"/>
<ellipse transform="matrix(0.5 -0.866 0.866 0.5 -445.0117 913.9047)" class="st2" cx="569" cy="842.3" rx="3.8" ry="2.3"/>
<g>
	<path class="st3" d="M1125.6,797.6c-4.4,15.1-9.9,29.6-16.2,43.2c-3,6.5-6.3,12.8-9.8,18.7c0,0.1-0.1,0.1-0.1,0.2H0l0.1-0.2
		c1-1.1,6.8-7.6,15.8-18.7c6.5-8,14.6-18.4,23.7-30.9c74.7-101.7,218.1-342.5,98.7-563.1C27.3,41.8,146.9,4.6,225.8,0.2
		c30.3-1.6,60.5,5.2,88.9,20.1c36.4,19.2,103.1,48.6,189.8,62.1c2.8,0.4,5.7,0.9,8.6,1.3c45.9,6.5,92.2,7.6,138.3,3.5l0,0
		c1.4-0.1,2.7-0.2,4.1-0.4c45.6-4.4,90.8-14.1,135.3-29c2.9-1,5.7-1.9,8.5-2.8c148-47.4,284.5,114.2,250.4,296.9
		c-12.6,67.6-9.4,139.6,32.6,197.9C1151.2,644.9,1142.9,738.6,1125.6,797.6z"/>
	<path class="st4" d="M1125.6,797.6c-4.4,15.1-9.9,29.6-16.2,43.2c-3,6.5-6.3,12.8-9.8,18.7H0.1c1-1.1,6.8-7.6,15.8-18.7
		c6.5-8,14.6-18.4,23.7-30.9l115.9-33.2c1.5-0.4,3-0.6,4.6-0.6l123.5-0.2h0.1l61.2-0.1h0.1l51.6-0.1h33.8l0,0h34.6l141.9-0.3h0.2h11
		h19.3h24.1h6.4l24.4-0.4h8.1l70.9-0.1h22.6l0,0H805l0,0l81.9-0.2h24.4l77.5-0.2l65.5-0.1c1.8,0,3.6,0.3,5.4,0.9L1125.6,797.6z"/>
	<path class="st5" d="M16,840.8h1093.4c-3,6.5-6.3,12.8-9.8,18.7H0.1C1.1,858.4,6.9,851.9,16,840.8z"/>
	<path class="st6" d="M16,840.8h1093.4c-3,6.5-6.3,12.8-9.8,18.7H0.1C1.1,858.4,6.9,851.9,16,840.8z"/>
	<path class="st4" d="M725.4,414.7l-2.2,0.6l-99.3,26.4c-28.8,7.7-58.1,15.4-87.4,12.4c-21.2-2.1-41-10.9-61.4-18.5
		c-11.5-4.3-23.7-6.1-27.7-23.9c-5.4-24.7,3.4-61.2,5.5-86.2c2-24.5,3.1-49.7-0.4-73.9c-0.8-5.4-1.8-10.8-3.1-16.1
		c-3.5-14.5-9.1-29.6-6.1-44.3c2.4-11.7,9.6-20,16.3-27.8c13.2-15.1,26.7-32,32-54.6c2.6-11,3.1-22.8,5.8-33.6
		c5.3-20.7,18.5-36.2,33.1-44.3c14.7-8.2,30.8-9.9,46.7-9.9c14,0,28,1.3,41.8,3.8c15.1,2.7,30.4,7.2,43.7,17.6s24.5,27.4,27.6,48.1
		c4.4,29.3-7.8,60.6-1.3,89.1c3.3,14.4,10.9,26,16.2,39.2c8.7,22.3,10.5,48.5,4.9,72.6c-6.3,27.1-21.8,54.5-13.9,80.8
		c5,16.7,17.9,25.6,26.9,38.9C723.9,412.3,724.7,413.5,725.4,414.7z"/>
	<path class="st7" d="M723.2,411.3v4l-99.3,26.4c-28.8,7.7-58.1,15.4-87.4,12.4c-21.2-2.1-41-10.9-61.4-18.5
		c-11.5-4.3-23.7-6.1-27.7-23.9c-5.4-24.7,3.4-61.2,5.5-86.2c2-24.5,32.4-114.1,28.9-138.3l182,11c1.2,13.4,49.3,80.6,46.3,93.4
		c-6.3,27.1-21.8,54.5-13.9,80.8C701.4,389.1,714.2,398,723.2,411.3z"/>
	<path class="st8" d="M537.2,343.5c1.1,8.5,1.7,17.8-1.5,25.2c-4.2,9.9-13.2,13.1-21.4,15.3l-28.2,7.8c-1.9,0.5-4,1.1-5.4,3
		c-1.7,2.1-2.3,5.4-2.5,8.5c-1.1,14.1,2.5,28.1,5.8,41.5c6.7,27.3,12.2,55.1,20.7,81.4c8.4,26.3,20,51.4,36.5,69
		c16.5,17.6,38.3,27,58.5,20.1c17.6-6,32-23.2,44.4-41.4c10.3-15.1,19.9-31.5,24.8-51.1c3.4-13.4,4.6-27.7,5.6-41.9
		c1.7-21.7,3.3-43.4,5-65.2c0.8-10.2,1.3-21.7-3.5-29.5c-2.1-3.4-4.9-5.7-7.9-7.9c-10.8-8-22.2-14.5-32.3-24.1s-19-22.8-22.1-39.2
		c-1.8-9.8-1.5-20.6-4.6-29.7c-3.5-10.3-10.9-17.2-18.8-20.3s-16.3-2.6-24.4-1.4c-8.2,1.3-39.6,4.5-42.9,17.3
		c-1.8,6.9,5.7,21.6,7.5,28.3C533.5,320.5,535.7,331.9,537.2,343.5z"/>
	<path class="st7" d="M537.2,343.5c1.1,8.5,1.7,17.8-1.5,25.2c-4.2,9.9-13.2,13.1-21.4,15.3l-28.2,7.8c-1.9,0.5-4,1.1-5.4,3
		c-1.7,2.1-2.3,5.4-2.5,8.5c-1.1,14.1,2.5,28.1,5.8,41.5c6.7,27.3,12.2,55.1,20.7,81.4c8.4,26.3,20,51.4,36.5,69
		c16.5,17.6,38.3,27,58.5,20.1c17.6-6,32-23.2,44.4-41.4c10.3-15.1,19.9-31.5,24.8-51.1c3.4-13.4,4.6-27.7,5.6-41.9
		c1.7-21.7,3.3-43.4,5-65.2c0.8-10.2,1.3-21.7-3.5-29.5c-2.1-3.4-4.9-5.7-7.9-7.9c-10.8-8-22.2-14.5-32.3-24.1s-19-22.8-22.1-39.2
		c-1.8-9.8-1.5-20.6-4.6-29.7c-3.5-10.3-10.9-17.2-18.8-20.3s-16.3-2.6-24.4-1.4c-8.2,1.3-39.6,4.5-42.9,17.3
		c-1.8,6.9,5.7,21.6,7.5,28.3C533.5,320.5,535.7,331.9,537.2,343.5z"/>
	<path class="st9" d="M605.1,492.5l16.5-48.5c7.7-22.7,15.7-46.6,14.8-71.7c-0.2-5-0.2-11.2,3-13.5c1.4-0.8,2.9-1,4.3-0.8
		c17.4,1.2,34.6,6,51,14.3c3.2,1.6,6.4,3.4,8.7,6.9c2.2,3.5,3.1,8.2,3.9,12.7c2.6,15.3,4.5,30.8,5.7,46.4c3,38.7,1.5,77.7,0,116.5
		l-4.4,118.4c0,1.7-0.2,3.3-0.7,4.9c-1.1,2.7-3.5,3.7-5.7,4.2c-8.5,2-17.2,1.6-25.8,1.2c-60.5-3.2-121.4-8.1-181.6,2.1
		c0.3-12.3,0.1-24.7-0.4-37c-2.4-53.3-12.4-105.3-22.2-156.9c-5.7-30.1-11.2-63-2-91.4c1.4-4.5,3.3-8.6,5.7-12.1
		c3.9-5.3,9.2-8.1,14.5-10.1c9.1-3.4,18.6-4.9,28-4.4l62.4,188.1c2.8,8.6,5.2,17.7,8,26.2c2.6-14.7-0.5-31.9,2.6-47.8
		C594.6,523.7,599.8,507.9,605.1,492.5z"/>
	<path class="st1" d="M598.5,621.9c11.2,1,22-6.9,29.7-18.1s12.7-25.4,17-39.7c6.2-20.4,11.1-41.6,14.6-63.2c3-18.4,5.1-37.4,3-56
		c-2.8-25.7-13.3-49-15.1-74.9c-0.3-4.5-0.1-9.8,2.5-12.5c1.6-1.7,3.8-1.9,5.8-2.1c18.7-1.5,39.2-1.2,53.6,15.2
		c4.4,5,8,11.2,12.3,16.4c10.2,12.3,24.7,18.6,31.3,35c2.3,5.7,3.4,12.2,5,18.3c3.8,14.5,10.3,27.3,16.8,39.9
		c-6.3,36.8-13.5,73.7-19.8,110.5c-3.7,21.6-7.4,43.3-13.2,64c-3.8,13.6-8.6,27.4-7.4,41.9c0.5,5.7,1.8,11.2,3,16.7
		c4.2,19.3,6.2,39.5,5.8,59.6l-282.3,1c13.5-26.9,17.5-59.8,16.1-92.5c-0.7-15.7-3.2-31.4-8.9-45c-9-21.2-24.7-35.1-40.3-46.9
		c-10.9-8.2-22.6,38-34.3,32.7c1.9-18.6,2.8-90.4,2-109.2c-0.3-6.1-0.7-12.4,0.7-18.3c0.9-4,2.6-7.6,3.8-11.5
		c4.6-15.6,0.2-35.6,7.7-48.9c5.2-9.2,14.3-11.9,21.7-17.6c7.6-5.9,13.5-15.1,20.1-22.9c13-15.2,28.8-25,45.7-28.2
		c4.9,10.7,7.9,23,8.7,35.6c0.5,8,0.1,16,0.9,23.9c1.1,10.7,4.3,20.8,7.5,30.7c13.2,41.4,26.5,82.8,43.3,121.7
		c4.7,11,9.9,21.9,16.8,30.5C579.4,616.4,589.3,622.5,598.5,621.9z"/>
	<path class="st7" d="M598.5,621.9c11.2,1,22-6.9,29.7-18.1s12.7-25.4,17-39.7c6.2-20.4,11.1-41.6,14.6-63.2c3-18.4,5.1-37.4,3-56
		c-2.8-25.7-13.3-49-15.1-74.9c-0.3-4.5-0.1-9.8,2.5-12.5c1.6-1.7,3.8-1.9,5.8-2.1c18.7-1.5,39.2-1.2,53.6,15.2
		c4.4,5,8,11.2,12.3,16.4c10.2,12.3,24.7,18.6,31.3,35c2.3,5.7,3.4,12.2,5,18.3c3.8,14.5,10.3,27.3,16.8,39.9
		c-6.3,36.8-13.5,73.7-19.8,110.5c-3.7,21.6-7.4,43.3-13.2,64c-3.8,13.6-8.6,27.4-7.4,41.9c0.5,5.7,1.8,11.2,3,16.7
		c4.2,19.3,6.2,39.5,5.8,59.6l-282.3,1c13.5-26.9,17.5-59.8,16.1-92.5c-0.7-15.7-3.2-31.4-8.9-45c-9-21.2-24.7-35.1-40.3-46.9
		c-10.9-8.2-22.6,38-34.3,32.7c1.9-18.6,2.8-90.4,2-109.2c-0.3-6.1-0.7-12.4,0.7-18.3c0.9-4,2.6-7.6,3.8-11.5
		c4.6-15.6,0.2-35.6,7.7-48.9c5.2-9.2,14.3-11.9,21.7-17.6c7.6-5.9,13.5-15.1,20.1-22.9c13-15.2,28.8-25,45.7-28.2
		c4.9,10.7,7.9,23,8.7,35.6c0.5,8,0.1,16,0.9,23.9c1.1,10.7,4.3,20.8,7.5,30.7c13.2,41.4,26.5,82.8,43.3,121.7
		c4.7,11,9.9,21.9,16.8,30.5C579.4,616.4,589.3,622.5,598.5,621.9z"/>
	<ellipse class="st8" cx="583.6" cy="222.9" rx="84.8" ry="117.4"/>
	<path class="st4" d="M539.1,379.4c2.3-30.4-6.8-60.1-17.1-87.1c-4.9-12.9-10.2-25.8-12.7-40c-2.5-14.2-1.8-30.2,4.6-41.9
		c5.4-9.9,14-15.3,21.9-21.1c22.4-16.4,42.8-40.6,52.7-72.9c-5.6,4.2-4.1,16.7,0.8,22.2c4.9,5.5,11.6,6.6,17.6,9.2
		c22,9.6,35.2,40,45.8,68.4c1.7,4.6,3.5,9.5,3.5,14.7c0,5.2-1.7,9.9-3.5,14.3c-5.2,12.9-11.6,25.3-14,39.6
		c-2.7,16.4,0.1,33.7,3.9,49.9c4,17.2,9.2,34.4,18.7,46.7c9.5,12.3,24.2,18.4,35.9,10.5c-11.7-27.8-23.7-58.8-19.2-90.3
		c2.2-15.1,8.1-28.8,10.6-43.8c4.8-28.6-3.2-58-11-85.3L654,91.2c-3.6-12.5-7.6-25.7-15.8-32.8c-5.5-4.8-12.2-6-18.7-6.9
		c-20.9-2.6-42.5-1.7-62,9c-35.4,19.6-57.7,67.9-75.3,114.8c-5.3,14-10.5,29-10.3,44.8c0.1,8.7,1.9,17.1,3.3,25.6
		c5.8,34.5,6.1,70.2,6.4,105.6c0.2,27.2-0.8,52.7-9.4,77.5c11.8,3.2,28.8,12,40.4,5.6C527.9,426.1,537.2,400.6,539.1,379.4z"/>
	<g class="st10">
		<path d="M481.6,350.8c0-3.9,0-7.8,0-11.7c-0.3-35.4-0.6-71.1-6.4-105.6c-1.3-6.7-2.3-13.5-3-20.4c-0.2,2.4-0.3,4.7-0.3,7.1
			c0.1,8.7,1.9,17.1,3.3,25.6C480.9,280.1,481.3,315.6,481.6,350.8z"/>
		<path d="M688.4,257.9c1.3-8,1.7-16.2,1.3-24.4c-0.2,4.1-0.6,8.1-1.3,12.1c-2.5,15.1-8.4,28.6-10.6,43.8
			c-0.9,6.7-1.2,13.5-0.8,20.2c0.2-2.7,0.4-5.3,0.8-7.9C680,286.6,685.9,273,688.4,257.9z"/>
		<path d="M655.3,224.7c0.5-1.9,0.7-4,0.8-6c0-5.2-1.7-10.1-3.5-14.7c-10.6-28.4-23.7-58.7-45.8-68.4c-6-2.6-12.7-3.7-17.6-9.2
			c-2.6-3-4.1-7.4-4.3-12.1c-10.7,27.3-29.1,48.1-49.1,62.8c-7.9,5.8-16.5,11.2-21.9,21.1c-5.1,9.3-6.5,21.4-5.7,33.2
			c0.5-7.5,2.5-14.7,5.7-20.8c5.4-9.9,14-15.3,21.9-21.1c20-14.6,38.4-35.5,49.1-62.8c0.2,4.7,1.8,9,4.3,12.1
			c4.9,5.5,11.6,6.6,17.6,9.2c22,9.6,35.2,40,45.8,68.4C653.7,218.9,654.6,221.8,655.3,224.7z"/>
		<path d="M661.1,369.2c-9.5-12.3-14.7-29.6-18.7-46.7c-2.4-9.6-4-19.6-4.7-29.7c-0.9,14.1,1.6,28.5,4.7,42.1
			c4,17.2,9.2,34.4,18.7,46.7c9.5,12.3,24.2,18.4,35.9,10.5c-1.4-3.3-2.8-6.7-4.2-10.1C682,386.1,669.5,380.1,661.1,369.2z"/>
		<path d="M539.1,367.1c-1.9,21.1-11.2,46.7-26.5,55.1c-10.6,5.8-25.6-0.9-37-4.5c-1,3.8-2.1,7.6-3.4,11.3
			c11.8,3.2,28.8,12,40.4,5.6c15.2-8.4,24.5-33.9,26.5-55.1c0.4-5.3,0.5-10.6,0.2-15.9C539.3,364.7,539.2,365.9,539.1,367.1z"/>
	</g>
	<path class="st9" d="M659,706.8c-15.3-3.4-30.8-9.8-46-5.5c-8.8,2.5-16.8,8.6-24.1,15.9c4,4.5,8.7,8.4,11.3,14.6
		c1.6,4.3,2.8,8.8,3.5,13.5c1.6,8.2,3.2,16.6,3.5,25.2c0.2,8.5-1,17.5-4.7,24.3c19.3,2.6,37.9-3.9,56.7-10.4c2.1-0.5,4.2-1.7,6-3.4
		c3-3.2,3.8-9,3.9-14.2c0-9.4-1.9-18.5-3.8-27.5C663,728.6,661.3,717.5,659,706.8z"/>
	<path class="st1" d="M762.2,475.7c7.6,1.4,13.5,9.9,17.8,18.6c12.2,24.2,17.4,53.7,23.2,82.1c7.3,35.3,15.8,70.1,25.6,104.3
		c2.1,7.9,4.7,15.6,7.7,22.9c2.4,5.7,5.4,11.1,6.5,17.5c2.6,15.5-6.6,30.1-16.3,38.8c-5.1,4.8-10.8,8.5-16.7,11.1
		c-5.8,2.4-11.8,3.3-17.7,4.2l-54.9,8.2c-25.3,3.8-50.8,7.6-76.1,3.9c-1.6-7.7,1.5-13.1,1.3-21.1c-0.2-5.7-2-11-3.6-16.3
		c-3-9.4-5-19.3-5.9-29.5c-0.3-3.7-0.4-7.6-1.4-11.1c-1-3.5-3.2-6.6-5.9-6.9c14.8-2,26.1-5.9,40.9-8c5.5-0.8,11.2-1.6,15.9-5.7
		c5.8-5,9.1-14.1,11.7-22.9c6.4-21.8,10.6-45.8,7.2-68.9c-2.8-18.9-10.5-36.5-10.5-55.8c0-11.5,2.8-22.6,6.2-33.2
		c3.5-11.1,8.2-22.5,15.9-28.1C741,474.3,753.4,474.1,762.2,475.7z"/>
	<path class="st11" d="M762.2,475.7c7.6,1.4,13.5,9.9,17.8,18.6c12.2,24.2,17.4,53.7,23.2,82.1c7.3,35.3,15.8,70.1,25.6,104.3
		c2.1,7.9,4.7,15.6,7.7,22.9c2.4,5.7,5.4,11.1,6.5,17.5c2.6,15.5-6.6,30.1-16.3,38.8c-5.1,4.8-10.8,8.5-16.7,11.1
		c-5.8,2.4-11.8,3.3-17.7,4.2l-54.9,8.2c-25.3,3.8-50.8,7.6-76.1,3.9c-1.6-7.7,1.5-13.1,1.3-21.1c-0.2-5.7-2-11-3.6-16.3
		c-3-9.4-5-19.3-5.9-29.5c-0.3-3.7-0.4-7.6-1.4-11.1c-1-3.5-3.2-6.6-5.9-6.9c14.8-2,26.1-5.9,40.9-8c5.5-0.8,11.2-1.6,15.9-5.7
		c5.8-5,9.1-14.1,11.7-22.9c6.4-21.8,10.6-45.8,7.2-68.9c-2.8-18.9-10.5-36.5-10.5-55.8c0-11.5,2.8-22.6,6.2-33.2
		c3.5-11.1,8.2-22.5,15.9-28.1C741,474.3,753.4,474.1,762.2,475.7z"/>
	<path class="st8" d="M418.3,457.9c3.6-11.8,7.2-24,7.3-36.8c0.1-13.9-4-27-7.1-40.2c-3.8-16.1-6.4-32.7-7.6-49.6
		c-0.3-1.6-0.1-3.3,0.5-4.8c0.8-1.6,2.4-1.9,3.8-2.4c6.8-2.2,12-9.8,16.3-17.5c6.6-11.9,12.2-24.9,16.7-38.6
		c3.3-10.1,7.7-22.4,15.7-22.5c-3.2,20.9-7.2,41.6-12,62c8.4-3,16.3-7.3,24.7-10.2c1.6-0.7,3.4-1,5.1-0.9c5,0.7,8.1,10.1,5.2,15.8
		c4.1,6.6,10.9,8.4,16.2,13c5.3,4.5,9.2,15.8,4.4,21.5c-0.9,1.1-2.1,1.9-2.8,3.3c-2.3,4.9,3.3,10.5,2.9,16.3c-0.4,4.8-4.8,7-8.1,5.7
		c-3.3-1.3-5.9-4.7-8.9-7.2s-6.8-4.1-9.7-1.5c-0.8,12.9-1.6,26-5.6,37.8c-1.5,4.3-3.4,8.3-4.6,12.8c-1.1,4.9-1.8,9.9-2.1,15
		l-3.6,45.5C447.8,479.1,432.5,472,418.3,457.9z"/>
	<path class="st9" d="M414.1,498.7l-3.2-29.6c-0.3-2.4-0.5-4.8-0.5-7.3c0-6.9,2.2-13.4,4.3-19.6c17.5,11.3,36.3,15.3,55.6,15.3
		c2.5,0,5.4-0.3,7-3.1c3.3,5.2,3.4,13.6,2,20.2s-4.1,12.6-5.9,19.1c-0.9,3.3-1.6,6.9-3.4,9.4c-2.7,4-7,4.7-10.9,4.6
		c-4.1,0-8.3-0.6-12.3-1.6C436.3,503.4,424.7,496,414.1,498.7z"/>
	<path class="st1" d="M479.2,497.5c-13.6-2.1-27-5.2-40.4-9c-6.6-1.9-13.2-4-19.9-3.7c-4.4,0.2-9,1.5-12.9-1.5
		c3.7,17.6,4,36.1-0.5,53.3c-2.6,10.3-6.7,19.9-8.6,30.4c-4,22.1,1.5,46.3-3.5,68c-0.5,2.8-1.6,5.4-3,7.6c-1.5,2-3.7,3-5.1,5.1
		c-2.1,3.1-2.2,7.8-2.2,12.1l-0.1,37.7c-0.1,24,0.2,49.5,9.3,69.9c10.4,23.3,32.4,35.4,51.6,28.3c5.1-1.8,9.9-5,14-9.5
		c6.6-7.3,10.9-17.9,15-28.2c4.9-12.3,9.9-24.9,11.5-38.8c1.1-9.8,0.5-19.9-0.3-29.7c-4.5-54.8-14.2-109.1-12.1-164.1
		C472.4,515.2,474.9,505.5,479.2,497.5z"/>
	<path class="st8" d="M535.9,724.9c-6.9,0.5-13.8,1.1-20.6,0c-4.9-0.8-9.8-2.5-14.7-3.7c-27.1-6.1-54.8,4.6-75.8,29.2
		c-3.8,4.5-7.6,11.4-5.5,17.7c2.3,6.8,9.2,6.6,14.5,5.3c-5.7,3.8-10.8,9.3-14.8,16.1c-1.5,2.5-2.9,5.5-2.6,8.7
		c0.6,6.8,7.3,8,12.2,7.4c-1.6,2.4-0.5,6.6,1.5,8.2c2,1.6,4.6,1.3,6.9,0.7c5.1-1.3,10-3.7,14.6-7c-0.9,3.4,0.7,7.3,3,9
		c2.3,1.7,5.1,1.5,7.6,1c12.1-2.7,22.2-14.4,34-19c18.9-7.3,38.6,4.3,58.2,5.2c6.1,0.3,12.4-0.6,18-4.1c6.9-4.3,12.4-12.4,19.6-15.3
		c8-3.2,17.3,0.5,24.6-5c5.4-4,0.5-34.7-0.8-40.6c-2.5-10.8-5-18-13.4-19.1C581.2,716.6,557.1,723.2,535.9,724.9z"/>
	<path class="st9" d="M588.5,716.5c0,0,31.9,37.4,13.5,78.3l35.6-17V742c0-1.7-13.5-27.2-13.5-27.2l-16-3.4L588.5,716.5z"/>
	<path class="st12" d="M254,714.2h12c13.7,0,24.7,15.3,24.7,34.3v50.8l0,0h-61.4l0,0v-50.8C229.3,729.5,240.4,714.2,254,714.2
		C254,714.2,254,714.2,254,714.2z"/>
	<path class="st7" d="M254,714.2h12c13.7,0,24.7,15.3,24.7,34.3v50.8l0,0h-61.4l0,0v-50.8C229.3,729.5,240.4,714.2,254,714.2
		C254,714.2,254,714.2,254,714.2z"/>
	<ellipse class="st12" cx="257.6" cy="726.1" rx="4.9" ry="6.8"/>
	<ellipse class="st12" cx="257.6" cy="717.6" rx="4.9" ry="6.8"/>
	<ellipse class="st12" cx="257.6" cy="709.1" rx="4.9" ry="6.8"/>
	<ellipse class="st12" cx="257.6" cy="700.6" rx="4.9" ry="6.8"/>
	<ellipse class="st12" cx="257.6" cy="692.1" rx="4.9" ry="6.8"/>
	<ellipse class="st12" cx="257.6" cy="683.6" rx="4.9" ry="6.8"/>
	<ellipse class="st12" cx="257.6" cy="675" rx="4.9" ry="6.8"/>
	<ellipse class="st12" cx="265" cy="678.4" rx="4.9" ry="6.8"/>
	<ellipse class="st12" cx="269.9" cy="675" rx="4.9" ry="6.8"/>
	<ellipse class="st12" cx="274.8" cy="671.6" rx="4.9" ry="6.8"/>
	<ellipse class="st12" cx="257.6" cy="666.5" rx="4.9" ry="6.8"/>
	<ellipse class="st12" cx="257.6" cy="658" rx="4.9" ry="6.8"/>
	<ellipse class="st12" cx="257.6" cy="649.5" rx="4.9" ry="6.8"/>
	<ellipse class="st12" cx="257.6" cy="641" rx="4.9" ry="6.8"/>
	<path class="st1" d="M278,619c-1.2,0.2-2.5,0.4-3.7,0.5c1.1-1.4,2.2-2.9,3.2-4.5c-0.7-2.9-1.7-5.6-3-8c-1.2,0.9-2.6,1.5-4,1.7
		c-1.2,0.2-2.4,0.4-3.7,0.5c1.6-1.8,3.1-4.6,4.7-6.9c-8.5-10.7-21.7-9.8-29.5,2c-7.7,11.8-7.1,30.1,1.4,40.8
		c8.5,10.7,21.7,9.8,29.5-2c3.5-5.3,5.4-12.3,5.4-19.4c0-1.7-0.1-3.3-0.3-5L278,619z"/>
	<path class="st1" d="M294.4,652.9c-1.3,1.1-2.7,1.7-4.1,1.9c-1.2,0.2-2.4,0.4-3.7,0.5c1.3-1.6,2.5-3.4,3.6-5.2
		c-6.6-2.4-13.3,3.1-15,12.2c-1.7,9.1,2.2,18.4,8.8,20.8s13.3-3.1,15-12.2C300.3,664.1,298.5,657,294.4,652.9L294.4,652.9z"/>
	<ellipse class="st12" cx="250.2" cy="678.4" rx="4.9" ry="6.8"/>
	<ellipse class="st12" cx="245.3" cy="675" rx="4.9" ry="6.8"/>
	<ellipse class="st12" cx="240.4" cy="671.6" rx="4.9" ry="6.8"/>
	<path class="st1" d="M220.8,652.9c1.3,1.1,2.7,1.7,4.1,1.9c1.2,0.2,2.4,0.4,3.7,0.5c-1.3-1.6-2.5-3.4-3.6-5.2
		c6.6-2.4,13.3,3.1,15,12.2c1.7,9.1-2.2,18.4-8.8,20.8c-6.6,2.4-13.3-3.1-15-12.2C214.9,664.1,216.7,657,220.8,652.9L220.8,652.9z"
		/>
	<path class="st12" d="M254,719.2h12c13.7,0,24.7,15.3,24.7,34.3l0,0v45c0,3.2-1.9,5.8-4.2,5.8h-53.1c-2.3,0-4.2-2.6-4.2-5.8v-45
		C229.3,734.6,240.4,719.2,254,719.2C254,719.2,254,719.2,254,719.2z"/>
	<g class="st10">
		<path d="M278.3,620.9c-0.5,0.7-1,1.4-1.6,2.1c0.6,0,1.1-0.1,1.7-0.2C278.4,622.1,278.4,621.5,278.3,620.9z"/>
		<path d="M269.4,612.8c1.2-0.1,2.5-0.3,3.7-0.5c1.1-0.2,2.2-0.6,3.2-1.2c-0.5-1.4-1.1-2.7-1.7-3.9c-0.6,0.5-1.3,0.9-2,1.2
			C271.6,609.9,270.5,611.4,269.4,612.8z"/>
		<path d="M239.1,627.4c0-16,9.3-28.9,20.8-28.9c4,0,8,1.6,11.3,4.6l0.3-0.5c-8.6-10.6-21.8-9.5-29.5,2.4s-6.9,30.2,1.7,40.8
			c0.1,0.1,0.2,0.2,0.2,0.3C240.9,640.8,239.1,634.2,239.1,627.4z"/>
	</g>
	<g class="st10">
		<path d="M286.6,658.7c1.2-0.1,2.5-0.3,3.7-0.5c1.5-0.2,2.9-0.8,4.1-1.9c2.8,2.9,4.6,7.2,4.9,12.1c0-0.6,0.1-1.2,0.1-1.8
			c0-5.4-1.8-10.5-4.9-13.7c-1.3,1.1-2.7,1.7-4.1,1.9l-1,0.2C288.5,656.3,287.6,657.5,286.6,658.7z"/>
		<path d="M287.1,652.9c0.4,0,0.8,0,1.2,0.1c0.6-0.9,1.3-2,1.9-2.9c-6.5-2.4-13.3,3-15,12c-0.3,1.4-0.4,2.9-0.4,4.4
			c0,0.6,0,1.1,0.1,1.7C275.5,659.5,280.8,652.9,287.1,652.9z"/>
	</g>
	<g class="st10">
		<path d="M228.6,658.7c-1.2-0.1-2.5-0.3-3.7-0.5c-1.5-0.2-2.9-0.8-4.1-1.9c-2.8,2.9-4.6,7.2-4.9,12.1c0-0.6-0.1-1.2-0.1-1.8
			c0-5.4,1.8-10.5,4.9-13.7c1.3,1.1,2.7,1.7,4.1,1.9l1,0.2C226.7,656.3,227.6,657.6,228.6,658.7z"/>
		<path d="M228.1,652.9c-0.4,0-0.8,0-1.2,0.1c-0.6-0.9-1.3-2-1.9-2.9c6.5-2.4,13.3,3,15,12c0.3,1.4,0.4,2.9,0.4,4.4
			c0,0.6,0,1.1-0.1,1.7C239.7,659.5,234.4,652.9,228.1,652.9z"/>
	</g>
	<path class="st1" d="M194.7,820.8H98.1c-2.3,0-4.1-2.5-4.1-5.7l0,0v-63.4c0-3.1,1.8-5.7,4.1-5.7c0.6,0,1.2,0.2,1.8,0.5
		c27.8,18.2,57.7,24.5,93,0.3c2-1.4,4.5-0.2,5.5,2.6c0.3,0.8,0.4,1.6,0.4,2.5v63C198.8,818.1,197,820.7,194.7,820.8
		C194.7,820.8,194.7,820.8,194.7,820.8z"/>
	<path class="st7" d="M194.7,820.8H98.1c-2.3,0-4.1-2.5-4.1-5.7l0,0v-63.4c0-3.1,1.8-5.7,4.1-5.7c0.6,0,1.2,0.2,1.8,0.5
		c27.8,18.2,57.7,24.5,93,0.3c2-1.4,4.5-0.2,5.5,2.6c0.3,0.8,0.4,1.6,0.4,2.5v63C198.8,818.1,197,820.7,194.7,820.8
		C194.7,820.8,194.7,820.8,194.7,820.8z"/>
	<ellipse class="st12" cx="145.7" cy="762.3" rx="5.7" ry="10.4"/>
	<ellipse class="st12" cx="145.7" cy="749.6" rx="5.7" ry="10.4"/>
	<ellipse class="st12" cx="145.7" cy="736.9" rx="5.7" ry="10.4"/>
	<ellipse class="st12" cx="145.7" cy="724.2" rx="5.7" ry="10.4"/>
	<ellipse class="st12" cx="145.7" cy="711.5" rx="5.7" ry="10.4"/>
	<ellipse class="st12" cx="145.7" cy="698.9" rx="5.7" ry="10.4"/>
	<ellipse class="st12" cx="145.7" cy="686.2" rx="5.7" ry="10.4"/>
	<path class="st1" d="M167.2,599.4c0.8-1.4,1.5-2.8,2.1-4.3l-15-3.4l16.3,0.2c3.2-9.5,3.4-20.4,0.5-30.1l-21.8,15.7l20.1-20.6
		c-7.6-18.2-24.3-24.4-37.5-13.9c-13.1,10.5-17.6,33.7-10,51.9c0.7,1.6,1.4,3,2.2,4.5c-1.2,2.1-2.3,4.5-3.1,6.9l19.5,14.2l-20.8-9.7
		c-3,12.1-1.3,25.5,4.4,35.6c-9.4,16.5-7.3,40.3,4.6,53.3c11.9,13,29.1,10.1,38.5-6.4c7.8-13.8,7.8-33.2,0-46.9
		C175,632.5,175,613.1,167.2,599.4L167.2,599.4z"/>
	<path class="st7" d="M118.2,622.9c0,8.5,2.1,16.8,5.9,23.5c-9.4,16.5-7.3,40.3,4.6,53.3c11.9,13,29.1,10.1,38.5-6.4
		c7.8-13.8,7.8-33.2,0-46.9C170.8,639.9,118.2,618.6,118.2,622.9z"/>
	<path class="st1" d="M194.7,824.1H98.1c-2.3,0-4.1-2.5-4.1-5.7l0,0v-66.7c0-3.1,1.8-5.7,4.1-5.7c0.6,0,1.2,0.2,1.8,0.5
		c27.8,18.2,49.8,39.5,93,0.3c2.6-2.3,5.9,0.8,5.9,5.1v66.4C198.8,821.5,197,824.1,194.7,824.1z"/>
	<polygon class="st13" points="912,805.3 769.4,831.4 762.2,832.7 692.5,781.1 692.5,769.1 910.4,736.2 	"/>
	<polygon class="st14" points="732.9,786.6 887.4,761.4 885.8,800.9 765.5,813.1 	"/>
	<path class="st6" d="M769.4,818.4v13l-7.1,1.4l-69.7-51.6v-12.1l66.6,49.3C759.1,818.4,767.8,819.5,769.4,818.4z"/>
	<path class="st12" d="M796.8,612.7l-32,205.6c-1.1,7.1,2.1,14.1,7.3,15.6c1.1,0.3,2.2,0.4,3.3,0.2L977.8,797
		c3.6-0.7,6.6-4.1,7.8-8.9l43.7-182.5c1.6-6.9-1.1-14.3-6-16.6c-1.1-0.5-2.3-0.7-3.4-0.6l-214.2,14.1
		C801.3,602.7,797.7,606.9,796.8,612.7z"/>
	
		<ellipse transform="matrix(5.659986e-02 -0.9984 0.9984 5.659986e-02 164.8006 1549.9301)" class="st9" cx="902.5" cy="687.8" rx="11.9" ry="5.5"/>
</g>
</svg>
